<svg width="700" height="700" viewBox="0 0 700 700" fill="none" xmlns="http://www.w3.org/2000/svg">
<path d="M447.44 393.68C444.081 392.559 440.159 394.801 439.042 398.719C421.12 469.278 357.843 518.559 285.042 518.559C197.12 518.559 126.002 446.879 126.002 359.519C126.002 286.16 175.283 222.879 246.402 204.959C249.761 203.838 252.003 200.479 251.441 196.561C250.32 193.201 246.96 190.959 243.042 191.522C224.562 196.002 207.202 203.842 190.964 214.483C175.284 224.561 161.284 237.444 149.523 252.003C137.761 267.124 128.804 283.362 122.082 301.284C115.363 319.764 112.004 339.362 112.004 358.964C112.004 382.484 116.485 404.886 125.445 426.163C134.406 446.882 146.726 465.362 162.406 481.042C178.086 496.722 196.566 509.601 217.285 518.003C238.566 526.964 260.965 531.444 284.484 531.444C304.086 531.444 323.683 528.084 342.164 521.924C360.086 515.764 376.324 506.244 391.445 495.045C406.004 483.283 418.886 469.846 428.965 454.166C439.606 438.486 446.887 420.564 451.926 402.646C453.04 398.716 450.801 394.798 447.442 393.677L447.44 393.68ZM587.44 444.078C585.76 440.719 581.838 439.039 578.479 440.719L523.038 467.039L470.96 333.759L291.76 333.763V199.363H417.2C421.122 199.363 423.919 196.562 423.919 192.644C423.919 188.722 421.118 185.925 417.2 185.925L291.76 185.921V123.761C301.838 122.081 311.362 117.601 319.201 110.32C328.162 101.359 333.201 89.039 333.201 76.16C333.197 63.281 327.599 50.961 318.639 42C309.679 33.039 297.358 28 285.037 28C272.717 28 260.396 33.0391 250.877 42C241.916 50.9609 236.877 63.281 236.877 76.16C236.877 89.039 241.916 100.801 250.877 110.32C258.158 117.601 267.678 122.64 278.318 123.761V348.321H461.438L515.758 486.641L584.637 453.602C587.438 451.922 589.118 447.442 587.438 444.079L587.44 444.078ZM250.32 76.158C250.32 57.119 266 41.439 285.039 41.439C304.078 41.439 319.758 57.119 319.758 76.158C319.758 95.197 304.078 110.877 285.039 110.877C265.441 110.877 250.32 95.197 250.32 76.158Z" fill="white"/>
</svg>
