<svg width="700" height="700" viewBox="0 0 700 700" fill="none" xmlns="http://www.w3.org/2000/svg">
<g id="aprender ">
<g id="grupo">
<path id="person" d="M492.67 359.18V297.813H472.44V287.762L469.518 286.735C464.245 284.887 458.795 283.317 453.233 281.993V259.114L452.538 258.035C441.659 241.07 421.62 227.433 396.808 219.746C414.023 205.98 425.101 184.832 425.101 161.125C425.101 119.719 391.417 86.0314 350.007 86.0314C308.597 86.0314 274.913 119.715 274.913 161.125C274.913 184.836 285.991 205.984 303.218 219.754C277.39 227.739 256.894 242.066 246.284 259.953L245.671 260.985V282.235C240.483 283.508 235.409 285.004 230.48 286.731L227.558 287.758V297.809H207.328V359.176C197.953 361.504 190.894 371.121 190.894 382.633C190.894 394.125 197.944 403.731 207.328 406.059V473.957H492.668V406.055C502.043 403.735 509.102 394.121 509.102 382.629C509.102 371.129 502.047 361.504 492.668 359.18H492.67ZM472.44 306.563H483.92V359.18C479.33 360.317 475.361 363.25 472.44 367.243V306.563ZM442.905 259.661C443.413 260.349 444.003 261.001 444.479 261.708V280.165C443.96 280.071 443.428 279.985 442.905 279.891V259.661ZM442.905 432.491V288.871C450.022 290.18 457.014 291.816 463.69 294.004V442.444C440.17 435.182 417.303 434.01 398.174 435.194C409.096 433.561 422.322 432.495 438.529 432.495L442.905 432.491ZM354.374 437.827V292.307C357.823 287.448 377.265 261.834 404.659 259.284V415.664C381.288 417.07 363.772 429.391 354.374 437.832V437.827ZM413.409 424.675V270.195C420.3 269.035 427.241 268.246 434.159 268.043V423.763C426.636 423.849 419.764 424.177 413.409 424.673V424.675ZM283.659 161.125C283.659 124.543 313.421 94.7809 350.003 94.7809C386.585 94.7809 416.347 124.543 416.347 161.125C416.343 197.707 386.577 227.465 349.995 227.465C313.413 227.465 283.659 197.707 283.659 161.125ZM312.651 226.176C323.663 232.524 336.397 236.215 350.003 236.215C363.605 236.215 376.339 232.524 387.358 226.168C411.514 232.281 431.253 244.164 442.565 259.219H438.53C430.178 259.219 421.753 259.93 413.405 261.254V250.32H409.03C379.635 250.32 358.409 272.914 349.995 283.668C341.585 272.91 320.35 250.32 290.956 250.32H286.581V261.254C278.241 259.926 269.815 259.219 261.464 259.219H257.421C268.73 244.153 288.378 232.317 312.651 226.176H312.651ZM350.194 290.86H350.096L350.073 290.836L350.108 290.809L350.194 290.86ZM349.932 290.848V290.86H349.909L349.932 290.848ZM345.62 292.301V437.821C336.221 429.388 318.71 417.059 295.335 415.661V259.281C322.73 261.828 342.171 287.445 345.62 292.301V292.301ZM286.585 270.188V424.668C280.225 424.18 273.362 423.844 265.843 423.758V268.028C272.761 268.231 279.702 269.02 286.585 270.18V270.188ZM254.417 263.407C255.21 262.13 256.182 260.915 257.093 259.681V279.88C256.202 280.036 255.303 280.184 254.417 280.352V263.407ZM236.304 293.997C242.976 291.81 249.972 290.169 257.093 288.864V432.484H261.468C277.679 432.484 290.909 433.559 301.827 435.184C282.694 434 259.823 435.172 236.3 442.434L236.304 293.997ZM216.074 306.559H227.554V367.266C224.636 363.258 220.663 360.317 216.074 359.176V306.559ZM199.648 382.629C199.648 374.219 205.054 367.367 211.707 367.367C218.355 367.367 223.766 374.211 223.766 382.629C223.766 391.024 218.36 397.859 211.707 397.859C205.054 397.859 199.648 391.023 199.648 382.629ZM483.918 465.199H216.078V406.051C220.668 404.914 224.636 401.973 227.558 397.973V454.657L233.386 452.61C288.074 433.407 340.816 449.981 347.256 452.126L347.811 452.833H349.936L349.986 449.04L350.061 449.208V452.837H352.193L352.701 452.188C361.205 449.376 413.037 433.809 466.611 452.622L472.439 454.669L472.447 398.001C475.369 401.989 479.342 404.919 483.927 406.051V465.199L483.918 465.199ZM488.293 397.859C481.625 397.859 476.207 391.027 476.207 382.629C476.207 374.219 481.633 367.367 488.293 367.367C494.941 367.367 500.352 374.211 500.352 382.629C500.352 391.024 494.942 397.859 488.293 397.859Z" fill="black"/>
<path id="Vector" d="M234.66 503.12C227.449 503.12 221.582 508.987 221.582 516.198C221.582 523.409 227.449 529.276 234.66 529.276C241.871 529.276 247.738 523.409 247.738 516.198C247.738 508.987 241.871 503.12 234.66 503.12ZM234.66 526.358C229.058 526.358 224.5 521.796 224.5 516.198C224.5 510.596 229.063 506.038 234.66 506.038C240.262 506.038 244.82 510.601 244.82 516.198C244.82 521.8 240.258 526.358 234.66 526.358Z" fill="black"/>
<path id="Vector_2" d="M119.65 162.24L113.869 173.947L100.943 175.826L110.298 184.943L108.087 197.822L119.649 191.744L131.211 197.822L129.008 184.947L138.364 175.83L125.43 173.947L119.65 162.24ZM125.869 183.928L127.334 192.491L119.646 188.455L111.959 192.491L113.423 183.928L107.205 177.862L115.802 176.612L119.646 168.823L123.49 176.612L132.088 177.862L125.869 183.928Z" fill="black"/>
<path id="Vector_3" d="M239.02 47.863L235.032 39.7771L231.043 47.863L222.118 49.1638L228.575 55.4568L227.051 64.3396L235.032 60.1443L243.012 64.3396L241.489 55.4568L247.946 49.1638L239.02 47.863ZM239.137 59.011L235.032 56.8508L230.926 59.011L231.707 54.4368L228.383 51.1946L232.981 50.5305L235.036 46.3703L237.09 50.5305L241.688 51.1946L238.364 54.4368L239.137 59.011Z" fill="black"/>
<path id="Vector_4" d="M578 408.05L585.981 412.245L584.457 403.363L590.914 397.07L581.988 395.769L578 387.683L574.012 395.769L565.086 397.07L571.543 403.363L570.019 412.245L578 408.05ZM571.359 399.097L575.957 398.433L578.012 394.273L580.067 398.433L584.664 399.097L581.34 402.339L582.121 406.913L578.016 404.753L573.91 406.913L574.692 402.339L571.359 399.097Z" fill="black"/>
<path id="Vector_5" d="M578 82.461L572.738 98.66H555.711L569.484 108.676L564.223 124.867L578 114.855L591.777 124.867L586.515 108.676L600.288 98.66H583.261L578 82.461ZM583.09 107.555L586.234 117.227L578.004 111.246L569.773 117.227L572.918 107.555L564.687 101.571H574.867L578.012 91.8948L581.156 101.571H591.336L583.09 107.555Z" fill="black"/>
<path id="Vector_6" d="M531.59 30.723C524.379 30.723 518.512 36.5902 518.512 43.801C518.512 51.0119 524.379 56.879 531.59 56.879C538.801 56.879 544.668 51.0118 544.668 43.801C544.672 36.594 538.809 30.723 531.59 30.723V30.723ZM531.59 53.965C525.988 53.965 521.43 49.4025 521.43 43.805C521.43 38.2034 525.993 33.645 531.59 33.645C537.192 33.645 541.75 38.2075 541.75 43.805C541.754 49.4027 537.199 53.965 531.59 53.965Z" fill="black"/>
<path id="Vector_7" d="M586.97 275.34C581.224 275.34 576.552 280.012 576.552 285.758C576.552 291.504 581.224 296.176 586.97 296.176C592.716 296.176 597.388 291.504 597.388 285.758C597.388 280.012 592.708 275.34 586.97 275.34ZM586.97 293.258C582.833 293.258 579.47 289.891 579.47 285.758C579.47 281.621 582.837 278.258 586.97 278.258C591.107 278.258 594.47 281.625 594.47 285.758C594.47 289.895 591.103 293.258 586.97 293.258Z" fill="black"/>
<path id="Vector_8" d="M157.25 86.297C149.656 86.297 143.477 92.4728 143.477 100.07C143.477 107.664 149.653 113.843 157.25 113.843C164.844 113.843 171.023 107.667 171.023 100.07C171.023 92.4762 164.839 86.297 157.25 86.297ZM157.25 110.926C151.266 110.926 146.395 106.055 146.395 100.071C146.395 94.0866 151.266 89.216 157.25 89.216C163.234 89.216 168.105 94.0871 168.105 100.071C168.105 106.055 163.23 110.926 157.25 110.926Z" fill="black"/>
<path id="Vector_9" d="M198.23 516.33C200.132 516.814 202.05 517.24 203.992 517.631L204.57 514.771C202.675 514.393 200.8 513.967 198.945 513.506L198.23 516.33Z" fill="black"/>
<path id="Vector_10" d="M139.38 480.95C141.954 483.809 144.712 486.575 147.571 489.177L149.536 487.016C146.747 484.477 144.06 481.782 141.544 478.997L139.38 480.95Z" fill="black"/>
<path id="Vector_11" d="M111.68 401.64C111.68 399.734 111.727 397.82 111.821 395.894L108.91 395.753C108.813 397.718 108.766 399.687 108.766 401.64C108.766 403.554 108.813 405.46 108.906 407.355L111.817 407.214C111.723 405.363 111.68 403.507 111.68 401.64L111.68 401.64Z" fill="black"/>
<path id="Vector_12" d="M110.04 418.89C110.606 422.699 111.368 426.527 112.302 430.265L115.13 429.554C114.216 425.91 113.466 422.175 112.919 418.464L110.04 418.89Z" fill="black"/>
<path id="Vector_13" d="M156.52 496.56C159.622 498.869 162.868 501.044 166.161 503.025L167.665 500.521C164.45 498.591 161.29 496.466 158.262 494.216L156.52 496.56Z" fill="black"/>
<path id="Vector_14" d="M125.59 462.32C127.567 465.629 129.738 468.879 132.031 471.972L134.375 470.238C132.141 467.211 130.024 464.043 128.094 460.816L125.59 462.32Z" fill="black"/>
<path id="Vector_15" d="M176.4 508.51C179.884 510.162 183.494 511.658 187.123 512.959L188.107 510.213C184.568 508.948 181.049 507.483 177.646 505.873L176.4 508.51Z" fill="black"/>
<path id="Vector_16" d="M115.68 441.37C116.973 444.979 118.469 448.585 120.125 452.085L122.762 450.835C121.145 447.421 119.688 443.905 118.426 440.382L115.68 441.37Z" fill="black"/>
<path id="Vector_17" d="M113.94 378.87L111.081 378.3C110.694 380.241 110.35 382.179 110.065 384.12L112.948 384.546C113.237 382.659 113.569 380.765 113.94 378.87L113.94 378.87Z" fill="black"/>
<path id="Vector_18" d="M590.23 449.07L593.136 449.34C593.316 447.379 593.429 445.402 593.468 443.406L590.55 443.347C590.507 445.273 590.402 447.179 590.23 449.07L590.23 449.07Z" fill="black"/>
<path id="Vector_19" d="M528.05 519.09L528.655 521.942C532.874 521.043 537.05 519.793 541.085 518.231L540.031 515.512C536.152 517.02 532.117 518.219 528.051 519.09H528.05Z" fill="black"/>
<path id="Vector_20" d="M584.04 473.25L586.716 474.41C588.439 470.449 589.852 466.32 590.923 462.137L588.095 461.422C587.064 465.454 585.696 469.438 584.04 473.25V473.25Z" fill="black"/>
<path id="Vector_21" d="M570.6 494.27L572.784 496.208C575.659 492.969 578.291 489.489 580.612 485.864L578.155 484.289C575.92 487.789 573.377 491.149 570.6 494.27V494.27Z" fill="black"/>
<path id="Vector_22" d="M551.31 510.08L552.779 512.6C556.505 510.424 560.087 507.932 563.431 505.189L561.583 502.932C558.357 505.576 554.896 507.978 551.31 510.08L551.31 510.08Z" fill="black"/>
<path id="Vector_23" d="M509.88 520.8L509.821 523.718C510.38 523.73 510.942 523.734 511.501 523.734C512.931 523.734 514.349 523.699 515.759 523.624L515.614 520.714C513.712 520.808 511.814 520.843 509.88 520.8H509.88Z" fill="black"/>
<path id="Vector_24" d="M585.51 188.87H588.428V200.538H585.51V188.87Z" fill="black"/>
<path id="Vector_25" d="M585.51 212.2H588.428V223.868H585.51V212.2Z" fill="black"/>
<path id="Vector_26" d="M585.51 235.53H588.428V247.198H585.51V235.53Z" fill="black"/>
<path id="Vector_27" d="M585.51 165.53H588.428V177.198H585.51V165.53Z" fill="black"/>
</g>
</g>
</svg>
