<svg width="700" height="700" viewBox="0 0 700 700" fill="none" xmlns="http://www.w3.org/2000/svg">
<path d="M351.07 121.3C328.629 121.3 308.32 106.874 301.375 84.964L297.102 72.14C296.031 68.933 295.5 65.7259 294.965 63.058C294.43 60.9213 294.43 58.2494 294.43 56.1127C294.43 52.9057 294.43 49.6986 294.965 46.4955C300.305 19.7725 323.281 0.003479 351.07 0.003479C378.855 0.003479 401.832 19.7735 406.644 47.0265C407.179 50.2335 407.179 53.4406 407.179 56.6437C407.179 58.7804 407.179 60.9171 406.644 63.589C406.109 66.2609 405.574 69.4679 404.507 72.671L400.234 85.495C393.816 106.874 374.046 121.3 351.07 121.3H351.07ZM307.785 61.452C307.785 63.5887 308.32 65.7254 309.387 67.8661L313.66 80.6901C319.004 96.7211 333.965 107.94 351.066 107.94C368.164 107.94 383.128 97.2521 388.472 80.6901L392.745 67.8661C393.281 65.1942 393.816 63.0575 394.347 61.452C394.347 59.8504 394.882 57.7098 394.882 56.1082C394.882 53.9715 394.882 51.2996 394.347 48.6277C390.605 27.7877 372.972 12.2917 351.597 12.2917C330.222 12.2917 312.054 27.7877 308.847 48.6277C308.312 51.2996 308.312 53.4363 308.312 56.1082C307.784 58.2488 307.784 59.8504 307.784 61.452H307.785Z" fill="black"/>
<path d="M433.89 199.85H268.24V164.049C268.24 145.881 281.064 130.92 298.697 127.713L321.138 123.971L351.06 151.756L380.982 123.971L403.423 127.713C421.056 130.92 433.88 145.881 433.88 164.049L433.89 199.85ZM281.07 187.026H421.07V164.049C421.07 152.295 412.519 142.674 401.3 140.537L385.269 137.865L351.07 169.927L316.871 137.865L300.84 140.537C289.086 142.674 281.07 152.291 281.07 164.049V187.026Z" fill="black"/>
<path d="M169.92 409.31C147.479 409.31 127.17 394.884 120.225 372.974L115.952 360.15C114.881 356.943 114.35 353.736 113.815 351.068C113.28 348.931 113.28 346.259 113.28 344.123C113.28 340.916 113.28 337.709 113.815 334.505C118.624 307.255 141.6 287.482 169.389 287.482C197.174 287.482 220.151 307.252 224.963 334.505C225.498 337.712 225.498 340.92 225.498 344.123C225.498 346.259 225.498 348.931 224.963 351.068C224.428 353.74 223.893 356.947 222.826 360.15L218.553 372.974C212.135 394.884 192.365 409.31 169.92 409.31H169.92ZM126.639 349.998C126.639 352.135 127.174 354.271 128.241 356.412L132.514 369.236C137.858 385.267 152.819 396.486 169.92 396.486C187.018 396.486 201.982 385.798 207.326 369.236L211.599 356.412C212.135 353.74 212.67 351.603 213.201 349.998C213.201 348.396 213.736 346.256 213.736 344.654C213.736 342.517 213.736 339.846 213.201 337.174C209.459 316.334 191.826 300.838 170.451 300.838C149.076 300.838 130.908 316.334 127.701 337.174C127.166 339.846 127.166 341.982 127.166 344.654C126.103 346.256 126.103 348.396 126.638 349.998H126.639Z" fill="black"/>
<path d="M252.75 487.86H87.1V452.059C87.1 433.891 99.924 418.93 117.557 415.723L139.998 411.981L169.92 439.766L199.842 411.981L222.283 415.723C239.916 418.93 252.74 433.891 252.74 452.059L252.75 487.86ZM99.92 475.036H239.92V452.059C239.92 440.305 231.369 430.684 220.15 428.547L204.119 425.875L169.92 457.937L135.721 425.875L119.69 428.547C107.936 430.684 99.92 440.301 99.92 452.059V475.036Z" fill="black"/>
<path d="M530.08 409.31C507.639 409.31 487.33 394.884 480.385 372.974L476.112 360.15C475.041 356.943 474.51 353.736 473.975 351.068C473.44 348.931 473.44 346.259 473.44 344.123C473.44 340.916 473.44 337.709 473.975 334.505C478.784 307.255 501.76 287.482 529.549 287.482C557.334 287.482 580.311 307.252 585.123 334.505C585.658 337.712 585.658 340.92 585.658 344.123C585.658 346.259 585.658 348.931 585.123 351.068C584.588 353.74 584.053 356.947 582.986 360.15L579.771 373.509C572.826 394.884 553.056 409.31 530.08 409.31H530.08ZM530.08 301.37C508.705 301.37 490.537 316.866 487.33 337.706C486.795 340.378 486.795 342.515 486.795 345.186C486.795 346.788 486.795 348.929 487.33 350.53C487.33 352.667 487.865 354.804 488.932 356.944L493.205 369.768C498.549 385.799 513.51 397.018 530.611 397.018C547.709 397.018 562.673 386.33 568.017 369.768L572.29 356.944C573.361 354.272 573.361 352.136 573.892 350.53C573.892 348.929 574.427 346.788 574.427 345.186C574.427 342.515 574.427 340.378 573.892 337.706C569.619 316.331 551.451 301.37 530.08 301.37V301.37Z" fill="black"/>
<path d="M612.9 487.86H447.25V452.059C447.25 433.891 460.074 418.93 477.707 415.723L500.148 411.981L530.07 439.766L559.992 411.981L582.433 415.723C600.066 418.93 612.89 433.891 612.89 452.059L612.9 487.86ZM460.08 475.036H600.08V452.059C600.08 440.305 591.529 430.684 580.31 428.547L564.279 425.875L530.08 457.937L495.881 425.875L479.85 428.547C468.096 430.684 460.08 440.301 460.08 452.059V475.036Z" fill="black"/>
<path d="M550.38 275.19C533.814 223.358 498.548 180.608 450.458 154.43L456.337 143.207C507.099 170.992 545.04 216.414 562.137 271.457L550.38 275.19Z" fill="black"/>
<path d="M151.75 275.73L139.461 271.988C156.559 217.484 192.895 172.597 243.121 144.278L249.535 155.501C202.512 182.22 167.777 224.966 151.746 275.731L151.75 275.73Z" fill="black"/>
<path d="M351.07 560C300.84 560 253.82 543.969 214.28 512.977L222.296 502.825C259.167 531.68 304.05 547.177 351.076 547.177C397.564 547.177 441.916 532.216 478.256 503.896L486.271 514.048C447.259 543.97 400.771 560.001 351.081 560.001L351.07 560Z" fill="black"/>
</svg>
