<svg width="700" height="700" viewBox="0 0 700 700" fill="none" xmlns="http://www.w3.org/2000/svg">
<path d="M547.71 88.098V58.047C547.71 56.34 546.343 54.6329 544.296 54.6329H507.761C462.347 23.5589 409.077 6.82788 353.761 6.82788C253.371 6.82788 161.521 61.4609 113.711 149.558L76.8279 149.562C75.1209 149.562 73.4138 150.929 73.4138 152.976V186.441C73.4138 188.148 74.781 189.855 76.8279 189.855H95.9489C85.7069 218.878 80.5859 249.269 80.5859 280C80.5859 298.098 82.2929 316.195 86.0507 333.953L78.8788 335.66C77.5116 336 76.1483 337.367 76.1483 339.074V374.929C76.1483 376.636 77.1717 378.003 78.8788 378.343L100.734 383.464C103.808 390.636 106.878 397.804 110.636 404.976L98.0031 425.121C97.3195 426.488 97.3195 428.195 98.343 429.219L123.613 454.489C124.636 455.512 126.343 455.856 127.711 454.829L137.953 448.341C190.195 515.267 268.393 553.511 353.073 553.511C504.003 553.511 625.903 430.581 625.903 280.681C626.586 207.607 598.587 139.661 547.708 88.0905L547.71 88.098ZM540.882 61.465V353.415L358.882 353.411V61.4611L540.882 61.465ZM243.812 469.515H217.859L222.98 446.98C226.394 445.957 229.808 444.589 233.222 443.222V446.98C233.226 455.859 237.324 464.05 243.812 469.515ZM233.226 379.37C225.37 392.347 211.031 400.542 195.664 400.542C171.422 400.542 151.957 380.737 151.957 356.835C151.957 332.593 171.762 313.128 195.664 313.128C211.031 313.128 225.371 321.323 233.226 334.3V379.37ZM240.054 446.979V190.199H254.054V413.859C254.054 415.566 255.421 417.273 257.468 417.273H450.398C452.105 417.273 453.812 415.906 453.812 413.859V360.25H467.812V446.98C467.812 459.273 457.57 469.515 445.277 469.515H262.257C249.968 469.515 240.062 459.273 240.062 446.98L240.054 446.979ZM305.277 149.909H260.543V132.151H352.055V356.831C352.055 358.538 353.422 360.245 355.469 360.245H446.297V410.44H260.547V190.2H305.277C306.984 190.2 308.691 188.833 308.691 186.786V153.321C308.695 151.274 306.988 149.907 305.281 149.907L305.277 149.909ZM352.398 111.323H325.082C323.375 111.323 321.668 112.69 321.668 114.737C321.668 116.444 323.035 118.151 325.082 118.151H352.398V125.663L257.128 125.667C251.323 125.667 254.737 134.202 253.714 150.253H239.714V120.546C239.714 108.253 249.956 98.0108 262.249 98.0108H352.054V111.323H352.398ZM301.863 156.737V183.37H127.723V156.737H301.863ZM353.765 13.667C404.3 13.667 453.132 27.667 495.815 54.644H355.815C354.108 54.644 352.401 56.0112 352.401 58.0581V91.1791H262.253C246.206 91.1791 232.886 104.156 232.886 120.546V150.253H121.226C168.351 65.9091 257.136 13.6631 353.766 13.6631L353.765 13.667ZM80.245 183.377V156.744H115.757L121.222 156.74V183.373L80.245 183.377ZM103.124 190.205H233.224V270.447C229.81 269.08 226.396 267.717 222.982 266.689L216.834 240.056C216.494 238.689 215.127 237.326 213.42 237.326H177.568C175.861 237.326 174.493 238.349 174.153 240.056L168.009 266.689C161.864 268.736 156.056 271.127 150.595 273.861L128.052 259.181C126.685 258.498 124.978 258.498 123.954 259.521L98.6842 284.791C97.3209 286.154 97.3209 287.865 98.0045 289.229L112.345 312.448C109.27 317.912 106.88 323.718 105.173 329.862L92.5396 332.936C89.1255 315.862 87.4185 298.108 87.4185 280.35C87.4185 249.28 92.5396 218.889 103.126 190.205H103.124ZM126.686 447.325L105.174 425.813L119.174 403.278C119.858 402.255 119.858 400.887 119.174 399.864C115.76 393.719 113.03 387.231 110.979 380.399C110.639 379.376 109.612 378.352 108.588 378.008L82.9791 372.204V341.474L108.932 335.669C110.299 335.329 110.979 334.646 111.323 333.278C113.37 326.45 116.104 319.962 119.518 313.813C120.202 312.79 120.202 311.423 119.518 310.399L105.518 287.864L127.03 266.352L149.565 280.352C150.588 281.036 151.956 281.036 152.979 280.352C158.784 276.938 165.272 274.208 172.444 272.157C173.468 271.817 174.491 270.79 174.835 269.766L180.639 243.813H211.03L216.835 269.766C217.175 271.134 217.859 271.813 219.226 272.157C224.347 273.524 228.788 275.231 233.226 277.622V322.696C223.663 312.11 210.007 305.966 195.664 305.966C167.664 305.966 145.129 328.501 145.129 356.501C145.129 384.501 167.664 407.036 195.664 407.036C210.004 407.036 223.664 400.891 233.226 390.306V435.38C228.445 437.427 224.007 439.477 219.226 440.845C218.202 441.184 217.179 442.212 216.835 443.235L211.03 469.188H180.639L174.835 443.235C174.495 441.868 173.811 441.188 172.444 440.845C165.616 438.798 159.128 436.063 152.979 432.649C151.956 431.966 150.589 431.966 149.565 432.649L126.686 447.325ZM166.635 469.52C158.78 461.665 151.268 453.129 144.1 444.25L150.928 439.813C156.393 442.887 162.198 445.277 168.342 446.984L173.463 469.519L166.635 469.52ZM353.755 546.348C285.802 546.348 222.295 521.422 173.805 476.348H533.705C485.9 519.715 422.725 546.348 353.755 546.348ZM540.535 469.52H463.707C470.195 464.055 474.293 456.204 474.293 446.985V360.255H544.633C546.34 360.255 548.047 358.888 548.047 356.841V98.011C594.145 147.523 619.758 211.721 619.758 280.011C619.758 354.109 589.367 421.031 540.535 469.521V469.52Z" fill="white"/>
<path d="M260.88 499.9H342.489C344.196 499.9 345.903 498.533 345.903 496.486C345.903 494.779 344.536 493.072 342.489 493.072H260.88C259.173 493.072 257.466 494.439 257.466 496.486C257.466 498.533 258.829 499.9 260.88 499.9Z" fill="white"/>
<path d="M355.46 499.9H368.776C370.483 499.9 372.19 498.533 372.19 496.486C372.19 494.779 370.823 493.072 368.776 493.072H355.46C353.753 493.072 352.046 494.439 352.046 496.486C352.042 498.533 353.753 499.9 355.46 499.9Z" fill="white"/>
<path d="M380.39 499.9H389.269C390.976 499.9 392.683 498.533 392.683 496.486C392.683 494.779 391.316 493.072 389.269 493.072H380.39C378.683 493.072 376.976 494.439 376.976 496.486C376.976 498.533 378.683 499.9 380.39 499.9Z" fill="white"/>
<path d="M361.27 513.22C361.27 514.927 362.637 516.634 364.684 516.634H446.293C448 516.634 449.707 515.267 449.707 513.22C449.707 511.513 448.34 509.806 446.293 509.806H364.684C362.977 509.806 361.27 511.173 361.27 513.22Z" fill="white"/>
<path d="M334.98 513.22C334.98 514.927 336.347 516.634 338.394 516.634H351.71C353.417 516.634 355.124 515.267 355.124 513.22C355.124 511.513 353.757 509.806 351.71 509.806H338.394C336.343 509.806 334.98 511.173 334.98 513.22Z" fill="white"/>
<path d="M326.78 509.8H317.901C316.194 509.8 314.487 511.167 314.487 513.214C314.487 514.921 315.854 516.628 317.901 516.628H326.78C328.487 516.628 330.194 515.261 330.194 513.214C330.194 511.167 328.487 509.8 326.78 509.8Z" fill="white"/>
<path d="M353.76 460.98C364.686 460.98 373.565 452.101 373.565 441.175C373.565 430.249 364.686 421.37 353.76 421.37C342.834 421.37 333.955 430.249 333.955 441.175C333.955 452.101 342.83 460.98 353.76 460.98ZM353.76 428.199C360.932 428.199 366.737 434.004 366.737 441.176C366.737 448.348 360.932 454.153 353.76 454.153C346.588 454.153 340.783 448.348 340.783 441.176C340.783 434.004 346.588 428.199 353.76 428.199Z" fill="white"/>
<path d="M450.05 145.46C464.734 145.46 476.683 133.507 476.683 118.827C476.683 104.143 464.73 92.1941 450.05 92.1941C435.366 92.1941 423.417 104.147 423.417 118.827C423.417 133.507 435.37 145.46 450.05 145.46ZM450.05 99.3621C460.976 99.3621 469.855 108.241 469.855 119.167C469.855 130.093 460.976 138.972 450.05 138.972C439.124 138.972 430.245 130.093 430.245 119.167C430.245 108.237 439.124 99.3621 450.05 99.3621Z" fill="white"/>
<path d="M408.73 195.66H491.363C493.07 195.66 494.777 194.293 494.777 192.246C494.777 167.66 474.632 147.516 450.047 147.516C425.462 147.516 405.317 167.661 405.317 192.246C405.317 193.953 406.684 195.66 408.731 195.66H408.73ZM450.046 154.34C469.851 154.34 486.241 169.707 487.948 188.828H412.143C413.854 169.367 430.241 154.34 450.045 154.34H450.046Z" fill="white"/>
<path d="M389.95 246.54H509.81C516.982 246.54 522.443 240.735 522.443 233.907C522.443 226.735 516.638 221.274 509.81 221.274H389.95C382.778 221.274 377.317 227.079 377.317 233.907C377.313 240.735 383.118 246.54 389.95 246.54ZM389.95 227.763H509.81C513.224 227.763 515.955 230.493 515.955 233.907C515.955 237.322 513.224 240.052 509.81 240.052H389.95C386.536 240.052 383.806 237.321 383.806 233.907C384.141 230.493 386.876 227.763 389.95 227.763Z" fill="white"/>
<path d="M389.95 283.07H509.81C516.982 283.07 522.443 277.265 522.443 270.437C522.443 263.265 516.638 257.804 509.81 257.804L389.95 257.8C382.778 257.8 377.317 263.605 377.317 270.433C377.313 277.265 383.118 283.07 389.95 283.07ZM389.95 264.289H509.81C513.224 264.289 515.955 267.019 515.955 270.433C515.955 273.847 513.224 276.578 509.81 276.578L389.95 276.582C386.536 276.582 383.806 273.851 383.806 270.437C384.141 266.68 386.876 264.289 389.95 264.289Z" fill="white"/>
<path d="M467.12 292.98H432.632C424.437 292.98 417.948 299.468 417.948 307.664C417.948 315.859 424.436 322.348 432.632 322.348H467.12C475.315 322.348 481.804 315.86 481.804 307.664C481.804 299.469 475.316 292.98 467.12 292.98ZM467.12 315.515H432.632C428.194 315.515 424.776 312.101 424.776 307.659C424.776 303.222 428.191 299.804 432.632 299.804H467.12C471.557 299.804 474.975 303.218 474.975 307.659C475.315 312.101 471.561 315.515 467.12 315.515Z" fill="white"/>
</svg>
