<svg width="700" height="700" viewBox="0 0 700 700" fill="none" xmlns="http://www.w3.org/2000/svg">
<path d="M350 551.25C200.43 551.25 78.75 429.56 78.75 280C78.75 130.44 200.43 8.75 350 8.75C499.57 8.75 621.25 130.44 621.25 280C621.25 429.56 499.57 551.25 350 551.25ZM350 17.5C205.26 17.5 87.5 135.26 87.5 280C87.5 424.74 205.26 542.5 350 542.5C494.74 542.5 612.5 424.74 612.5 280C612.5 135.26 494.74 17.5 350 17.5Z" fill="black"/>
<path d="M408.96 407.41H172.7C164.415 407.41 157.657 400.848 157.657 392.781L157.661 184.541C157.661 182.127 159.622 180.166 162.036 180.166H472.406C474.82 180.166 476.781 182.127 476.781 184.541V339.421C476.781 341.812 474.863 343.761 472.476 343.796C439.628 344.312 413.648 370.343 413.335 403.069C413.308 405.464 411.362 407.409 408.956 407.409L408.96 407.41ZM166.42 188.91V392.78C166.42 396.026 169.236 398.659 172.713 398.659H404.773C407.179 364.632 433.91 337.839 468.043 335.249V188.909L166.42 188.91ZM472.41 339.42H472.496H472.41Z" fill="black"/>
<path d="M472.41 188.91H162.05C159.636 188.91 157.675 186.949 157.675 184.535V135.797C157.675 127.731 164.421 121.168 172.718 121.168H229.05C231.464 121.168 233.425 123.129 233.425 125.543V151.969H256.937V125.543C256.937 123.129 258.898 121.168 261.312 121.168H365.152C367.566 121.168 369.527 123.129 369.527 125.543V151.969H393.039V125.543C393.039 123.129 395 121.168 397.414 121.168H461.762C470.047 121.168 476.805 127.73 476.805 135.797V184.535C476.785 186.949 474.832 188.91 472.41 188.91H472.41ZM166.42 180.16H468.03V135.797C468.03 132.551 465.214 129.918 461.737 129.918H401.764V156.344C401.764 158.758 399.803 160.719 397.389 160.719H365.127C362.713 160.719 360.752 158.758 360.752 156.344V129.918H265.666V156.344C265.666 158.758 263.705 160.719 261.291 160.719H229.029C226.615 160.719 224.654 158.758 224.654 156.344V129.918H172.697C169.232 129.918 166.404 132.551 166.404 135.797L166.408 180.16H166.42Z" fill="black"/>
<path d="M397.41 160.71H365.148C362.734 160.71 360.773 158.749 360.773 156.335V92.05C360.773 89.6359 362.734 87.675 365.148 87.675H397.41C399.824 87.675 401.785 89.6359 401.785 92.05V156.347C401.785 158.761 399.828 160.71 397.41 160.71V160.71ZM369.523 151.96H393.035V96.425H369.523V151.96Z" fill="black"/>
<path d="M261.3 160.71H229.038C226.624 160.71 224.663 158.749 224.663 156.335V92.05C224.663 89.6359 226.624 87.675 229.038 87.675H261.3C263.714 87.675 265.675 89.6359 265.675 92.05V156.347C265.675 158.761 263.726 160.71 261.3 160.71V160.71ZM233.421 151.96H256.933V96.425H233.421V151.96Z" fill="black"/>
<path d="M343.04 278.87H291.431C289.017 278.87 287.056 276.909 287.056 274.495V223.061C287.056 220.647 289.017 218.686 291.431 218.686H343.04C345.454 218.686 347.415 220.647 347.415 223.061V274.495C347.415 276.909 345.454 278.87 343.04 278.87ZM295.806 270.12H338.665V227.436H295.806V270.12Z" fill="black"/>
<path d="M433.34 278.87H381.742C379.328 278.87 377.367 276.909 377.367 274.495V223.061C377.367 220.647 379.328 218.686 381.742 218.686H433.34C435.754 218.686 437.715 220.647 437.715 223.061V274.495C437.715 276.909 435.762 278.87 433.34 278.87ZM386.117 270.12H428.965V227.436H386.117V270.12Z" fill="black"/>
<path d="M252.73 278.87H201.121C198.707 278.87 196.746 276.909 196.746 274.495V223.061C196.746 220.647 198.707 218.686 201.121 218.686H252.73C255.144 218.686 257.105 220.647 257.105 223.061V274.495C257.105 276.909 255.144 278.87 252.73 278.87V278.87ZM205.488 270.12H248.347V227.436H205.488V270.12Z" fill="black"/>
<path d="M343.04 368.88H291.431C289.017 368.88 287.056 366.919 287.056 364.505V313.071C287.056 310.657 289.017 308.696 291.431 308.696H343.04C345.454 308.696 347.415 310.657 347.415 313.071V364.505C347.415 366.919 345.454 368.88 343.04 368.88ZM295.806 360.13H338.665V317.446H295.806V360.13Z" fill="black"/>
<path d="M422.36 368.88H381.743C379.329 368.88 377.368 366.919 377.368 364.505V313.071C377.368 310.657 379.329 308.696 381.743 308.696H433.341C435.755 308.696 437.716 310.657 437.716 313.071V353.356C437.716 354.696 437.111 355.954 436.064 356.786C432.282 359.778 428.845 363.278 425.818 367.181C424.986 368.251 423.716 368.88 422.361 368.88L422.36 368.88ZM386.118 360.13H420.243C422.903 356.9 425.825 353.935 428.966 351.275V317.439H386.118L386.118 360.13ZM433.341 353.349H433.427H433.341Z" fill="black"/>
<path d="M252.73 368.88H201.121C198.707 368.88 196.746 366.919 196.746 364.505V313.071C196.746 310.657 198.707 308.696 201.121 308.696H252.73C255.144 308.696 257.105 310.657 257.105 313.071V364.505C257.105 366.919 255.144 368.88 252.73 368.88V368.88ZM205.488 360.13H248.347V317.446H205.488V360.13Z" fill="black"/>
<path d="M473.44 472.32C435.456 472.32 404.561 441.511 404.561 403.648C404.561 365.789 435.456 334.976 473.44 334.976C511.424 334.976 542.331 365.785 542.331 403.648C542.327 441.511 511.425 472.32 473.44 472.32V472.32ZM473.44 343.74C440.288 343.74 413.311 370.619 413.311 403.662C413.311 436.701 440.288 463.584 473.44 463.584C506.604 463.584 533.581 436.705 533.581 403.662C533.577 370.623 506.601 343.74 473.44 343.74Z" fill="black"/>
<path d="M454.39 430.95L447.925 425.044L469.066 401.954V367.766H477.816V405.356L454.39 430.95Z" fill="black"/>
</svg>
