<svg width="700" height="700" viewBox="0 0 700 700" fill="none" xmlns="http://www.w3.org/2000/svg">
<path d="M360 405.53C360 411.05 355.523 415.526 350.004 415.526C344.484 415.526 340.008 411.05 340.008 405.53C340.008 400.007 344.484 395.534 350.004 395.534C355.523 395.534 360 400.007 360 405.53Z" fill="black"/>
<path d="M506.68 515.91H193.32C188.906 515.91 185.336 519.516 185.336 523.957C185.332 528.398 188.906 532 193.32 532H506.68C511.086 532 514.661 528.394 514.661 523.953C514.645 519.519 511.078 515.91 506.684 515.91H506.68Z" fill="black"/>
<path d="M444.09 237.11C443.301 236.926 442.5 236.758 441.692 236.602C421.032 217.516 435.133 137.829 435.133 137.829C435.133 16.3692 352.969 28.3192 352.969 28.3192C351.977 28.2684 350.985 28.2294 350 28.1942C349.016 28.2294 348.024 28.2684 347.02 28.3192C347.02 28.3192 264.864 16.3702 264.864 137.829C264.864 137.829 278.966 217.513 258.305 236.602C257.493 236.758 256.7 236.926 255.907 237.11C249.219 238.673 218.587 240.696 201.278 296.594H498.708C481.407 240.696 450.77 238.672 444.087 237.11H444.09ZM405.805 232.61C405.535 234.841 404.551 236.985 402.965 239.012C395.524 248.52 374.629 262.25 350 262.25C325.371 262.25 304.473 248.52 297.035 239.012C295.449 236.985 294.465 234.84 294.195 232.61C294.57 232.485 295.422 232.18 296.547 231.676C297.008 231.465 297.512 231.223 298.047 230.942C302.543 228.59 309.164 223.645 309.164 214.977H309.168C316.281 222.016 324.18 227.594 332.621 230.942C338.301 233.2 344.219 234.442 350.312 234.442C356.398 234.442 362.32 233.192 367.996 230.942C376.355 227.626 384.195 222.122 391.246 215.169C391.297 215.192 391.347 215.212 391.387 215.235C391.566 226.411 402.778 231.305 405.809 232.426C405.816 232.481 405.816 232.544 405.805 232.61L405.805 232.61ZM418.778 149.809C417.657 156.11 415.192 161.293 412.579 163.512C411.532 164.399 410.469 164.813 409.438 164.633C408.86 164.532 408.341 164.254 407.872 163.809C402.11 181.75 391.071 199.625 377.161 210.364C369.04 216.637 359.934 220.477 350.321 220.477C340.637 220.477 331.481 216.59 323.325 210.25C309.477 199.496 298.513 181.684 292.766 163.809C292.297 164.25 291.77 164.532 291.199 164.633C290.008 164.84 288.758 164.246 287.559 163.043C285.129 160.618 282.91 155.704 281.852 149.805C280.469 142.048 281.567 135.2 284.297 133.239C284.668 132.97 285.071 132.79 285.5 132.712C286.481 132.544 287.504 132.919 288.508 133.731H288.512C288.512 133.728 288.516 133.642 288.535 133.489C288.883 130.118 293.367 92.3443 321.648 94.9663L408.125 139.482L415.149 132.717C415.395 132.76 415.625 132.842 415.856 132.947C418.938 134.392 420.254 141.596 418.778 149.81L418.778 149.809Z" fill="black"/>
<path d="M210.39 511.16H489.61C499.993 511.16 508.415 502.742 508.415 492.355L546.02 315.405C546.02 305.022 537.602 296.604 527.215 296.604H498.715C499.024 297.608 499.344 298.585 499.641 299.624C499.645 299.635 499.652 299.639 499.652 299.647H525.523C535.8 299.647 544.144 307.897 544.144 318.053L506.531 489.713C506.531 499.877 498.203 508.127 487.91 508.127H212.081C201.792 508.127 193.46 499.877 193.46 489.713L155.85 318.053C155.85 307.889 164.19 299.647 174.475 299.647H200.342C200.346 299.643 200.346 299.635 200.346 299.624C200.655 298.581 200.967 297.608 201.276 296.604H172.772C162.389 296.604 153.971 305.022 153.971 315.405L191.576 492.365C191.58 502.744 199.998 511.162 210.385 511.162L210.39 511.16Z" fill="black"/>
<path d="M200.34 299.64H499.64C499.64 299.636 499.636 299.628 499.628 299.617C499.331 298.574 499.011 297.601 498.703 296.597H201.273C200.964 297.601 200.651 298.578 200.343 299.617C200.343 299.628 200.343 299.632 200.335 299.64H200.34Z" fill="black"/>
</svg>
